<?xml version="1.0" encoding="utf-8"?>
<!-- Generator: Adobe Illustrator 25.4.0, SVG Export Plug-In . SVG Version: 6.00 Build 0)  -->
<svg version="1.1" id="Layer_1" xmlns="http://www.w3.org/2000/svg" xmlns:xlink="http://www.w3.org/1999/xlink" x="0px" y="0px"
	 viewBox="0 0 32.36 35.19" style="enable-background:new 0 0 32.36 35.19;" xml:space="preserve">
<style type="text/css">
	.st0{fill:#231F20;}
	.st1{fill:#B7FF05;}
</style>
<path d="M30.59,29.26c0.24-4.35-4.66-5.79-4.63-8.79c0.04-3.81,0.49-4.92,0.57-7.39c0.03-1.01-0.4-4.61-4.03-6.84
	c-1.92-1.18-4.02-2.05-6.27-2.33V3.89c-0.01,0-0.02,0-0.03,0c-0.01,0-0.02,0-0.03,0V3.9c-2.25,0.28-4.35,1.15-6.27,2.33
	c-3.63,2.23-4.07,5.83-4.03,6.84c0.08,2.47,0.53,3.58,0.57,7.39c0.03,3-4.86,4.44-4.63,8.79c0.01,0.1,0,0.18-0.01,0.27h14.37h0.05
	H30.6C30.59,29.44,30.59,29.36,30.59,29.26z"/>
<g>
	<path d="M12.68,30.49c0.06,2.33,1.61,4.2,3.53,4.2s3.47-1.87,3.53-4.2H12.68z"/>
</g>
<path d="M16.21,4.99L16.21,4.99c-0.66,0-1.2-0.54-1.2-1.2V3.02c0-0.66,0.54-1.2,1.2-1.2h0c0.66,0,1.2,0.54,1.2,1.2v0.77
	C17.41,4.45,16.87,4.99,16.21,4.99z"/>
</svg>
