<?xml version="1.0" encoding="utf-8"?>
<!-- Generator: Adobe Illustrator 25.4.0, SVG Export Plug-In . SVG Version: 6.00 Build 0)  -->
<svg version="1.1" id="Layer_1" xmlns="http://www.w3.org/2000/svg" xmlns:xlink="http://www.w3.org/1999/xlink" x="0px" y="0px"
	 viewBox="0 0 40.33 40.32" style="enable-background:new 0 0 40.33 40.32;" xml:space="preserve">
<style type="text/css">
	.st0{fill:#231F20;}
	.st1{fill:#B7FF05;}
</style>
<g>
	<g>
		<path d="M26.26,17.77c-0.05,3.49-2.22,6.84-5.51,7.98C17.2,27,13.42,26,11.03,23.05c-2.15-2.65-2.4-6.66-0.61-9.67
			c1.77-2.97,5.4-4.66,8.76-4.03C23.34,10.14,26.21,13.64,26.26,17.77c0.04,3.21,5.04,3.22,5,0c-0.08-5.7-3.59-10.69-8.91-12.7
			C17.18,3.1,10.91,4.77,7.41,9.06c-3.6,4.41-4.25,10.67-1.3,15.62c2.95,4.93,8.66,7.36,14.26,6.35c6.32-1.14,10.81-6.96,10.9-13.26
			C31.31,14.55,26.31,14.55,26.26,17.77z"/>
	</g>
</g>
<g>
	<g>
		<path d="M24.63,27.41c2.57,2.57,5.14,5.14,7.72,7.72c0.37,0.37,0.73,0.73,1.1,1.1c0.69,0.69,1.97,0.75,2.65,0
			c0.69-0.75,0.74-1.91,0-2.65c-2.57-2.57-5.14-5.14-7.72-7.72c-0.37-0.37-0.73-0.73-1.1-1.1c-0.69-0.69-1.97-0.75-2.65,0
			C23.95,25.5,23.89,26.67,24.63,27.41L24.63,27.41z"/>
	</g>
</g>
</svg>
